<svg xmlns="http://www.w3.org/2000/svg" width="466" height="99"><g fill="none"><path fill="#0D203E" d="M25.86 76.3c3.4 0 6.62-.52 9.64-1.57 3.03-1.05 5.5-2.5 7.42-4.36l-8.43-10.3c-.94 1.13-2.16 1.98-3.68 2.56-1.5.6-3.04.88-4.6.88-1.65 0-3.15-.3-4.48-.9a10.37 10.37 0 0 1-3.43-2.56 11.1 11.1 0 0 1-2.17-3.76c-.5-1.42-.74-2.93-.74-4.54 0-1.6.25-3.12.78-4.54.52-1.42 1.25-2.68 2.17-3.76a10.58 10.58 0 0 1 3.34-2.6c1.3-.64 2.74-.97 4.35-.97 1.54 0 3.06.34 4.54 1.02 1.48.67 2.65 1.57 3.5 2.68l8.82-10.2c-.92-.92-2.02-1.77-3.3-2.54a21.55 21.55 0 0 0-4.16-1.95 33.16 33.16 0 0 0-4.73-1.26 26.7 26.7 0 0 0-4.96-.47c-3.58 0-6.95.58-10.1 1.72-3.15 1.13-5.9 2.77-8.2 4.9-2.32 2.13-4.15 4.7-5.48 7.74-1.34 3.03-2 6.43-2 10.2 0 3.83.66 7.26 2 10.3 1.32 3.02 3.15 5.6 5.46 7.73 2.32 2.13 5.05 3.75 8.2 4.87 3.16 1.1 6.56 1.67 10.2 1.67zM78.15 28.84c3.1 1.1 5.8 2.72 8.16 4.82 2.36 2.1 4.2 4.67 5.57 7.7 1.36 3.02 2.04 6.42 2.04 10.2 0 3.76-.67 7.18-2.03 10.24-1.36 3.06-3.2 5.65-5.56 7.8-2.34 2.12-5.06 3.77-8.15 4.95-3.1 1.17-6.4 1.76-9.92 1.76-3.46 0-6.75-.58-9.87-1.75-3.12-1.18-5.84-2.83-8.16-4.96-2.32-2.15-4.16-4.74-5.52-7.8-1.36-3.06-2.04-6.48-2.04-10.25 0-3.77.68-7.16 2.04-10.2 1.36-3.02 3.2-5.6 5.52-7.7 2.32-2.1 5.04-3.7 8.16-4.8.7-.26 1.44-.5 2.17-.7l4.43 12.08c-.5.15-1 .34-1.46.57-1.36.68-2.48 1.56-3.38 2.64-.9 1.08-1.58 2.34-2.04 3.76a13.97 13.97 0 0 0-.7 4.35c0 1.5.24 2.94.7 4.36a11.92 11.92 0 0 0 2.1 3.86 10.27 10.27 0 0 0 3.42 2.73c1.36.67 2.93 1 4.72 1 1.8 0 3.37-.33 4.73-1a10.27 10.27 0 0 0 3.43-2.74 11.92 11.92 0 0 0 2.1-3.85 13.97 13.97 0 0 0 .68-4.35c0-1.48-.25-2.93-.74-4.35-.5-1.42-1.2-2.68-2.13-3.76-.94-1.08-2.08-1.96-3.44-2.64a9.37 9.37 0 0 0-2.47-.82l4.25-12.12c1.16.26 2.3.58 3.4.98zm41.07-1.67c3.9 0 7.18.48 9.87 1.44 2.68.97 4.86 2.45 6.53 4.46 1.67 2 2.9 4.54 3.66 7.6.76 3.06 1.15 6.7 1.15 10.9V74.8h-13.9v-4.9h-.3l-.2.3c-1.16 1.77-2.87 3.15-5.12 4.14-2.38 1.05-4.96 1.58-7.74 1.58-1.86 0-3.78-.25-5.76-.75a16.84 16.84 0 0 1-5.42-2.42c-1.64-1.1-2.98-2.6-4.03-4.45-1.06-1.85-1.6-4.14-1.6-6.86 0-3.33.92-6.02 2.75-8.06 1.82-2.03 4.17-3.6 7.04-4.72 2.87-1.1 6.07-1.85 9.6-2.22a98.3 98.3 0 0 1 10.28-.56v-1.04c-.07-2.13-.87-3.72-2.4-4.75-1.62-1.08-3.6-1.62-5.94-1.62a14.77 14.77 0 0 0-6.26 1.4c-2 .92-3.73 2.03-5.15 3.33l-7.7-8.24.44-.4c2.62-2.4 5.65-4.2 9.07-5.44a32.56 32.56 0 0 1 11.08-1.95zm7.32 27.54h-1.95l-1 .02c-1.35.02-2.7.1-4.06.22-1.7.15-3.2.45-4.54.88-1.33.43-2.43 1.07-3.3 1.9-.86.83-1.3 1.93-1.3 3.3 0 .86.2 1.6.6 2.22a4.67 4.67 0 0 0 1.54 1.48c.62.37 1.33.63 2.13.8.8.14 1.58.22 2.32.22 3.08 0 5.45-.85 7.08-2.55 1.64-1.7 2.46-4 2.46-6.92V54.7zm43.02 21.6c3.4 0 6.6-.52 9.64-1.57 3.03-1.05 5.5-2.5 7.4-4.36l-8.42-10.3c-.93 1.13-2.15 1.98-3.66 2.56-1.52.6-3.05.88-4.6.88-1.66 0-3.16-.3-4.5-.9a10.37 10.37 0 0 1-3.42-2.56 11.1 11.1 0 0 1-2.18-3.76c-.5-1.42-.74-2.93-.74-4.54 0-1.6.26-3.12.8-4.54.5-1.42 1.24-2.68 2.17-3.76a10.58 10.58 0 0 1 3.33-2.6c1.3-.64 2.75-.97 4.36-.97 1.55 0 3.06.34 4.54 1.02 1.5.67 2.66 1.57 3.53 2.68l8.8-10.2c-.9-.92-2-1.77-3.28-2.54a21.55 21.55 0 0 0-4.17-1.95 33.16 33.16 0 0 0-4.73-1.26 26.7 26.7 0 0 0-4.96-.47c-3.58 0-6.95.58-10.1 1.72-3.15 1.13-5.9 2.77-8.2 4.9-2.32 2.13-4.15 4.7-5.48 7.74-1.32 3.03-2 6.43-2 10.2 0 3.83.68 7.26 2 10.3 1.33 3.02 3.16 5.6 5.47 7.73 2.32 2.13 5.06 3.76 8.2 4.87 3.16 1.1 6.56 1.67 10.2 1.67zm35.7-.36V51c0-2.78.7-5.12 2.12-7 1.42-1.9 3.46-2.83 6.12-2.83 1.36 0 2.47.26 3.34.8a6 6 0 0 1 2.08 2.12c.53.9.88 1.92 1.07 3.1.17 1.17.27 2.4.27 3.7v25.04h15.3V47.38c0-2.28-.3-4.57-.9-6.86-.58-2.28-1.53-4.3-2.86-6.07-1.32-1.76-3.05-3.2-5.18-4.3-2.14-1.12-4.78-1.68-7.93-1.68-3.22 0-5.97.73-8.26 2.18-2.3 1.45-3.96 3.1-5 4.96h-.2V5.86h-15.2v70.08h15.2z"/><path fill="#FF697B" d="M281.4 76.26V64.5h-23.27l22.34-23V30.1h-39.4v11.67h20.86l-21.7 22.62v11.86zm20.4 0V30.1h-15.2v46.16zm35.6-47.1c3.33 0 6.36.65 9.07 1.95 2.72 1.3 5.02 3.07 6.9 5.3 1.9 2.22 3.35 4.8 4.37 7.74 1.02 2.93 1.53 6 1.53 9.22 0 3.22-.5 6.3-1.5 9.27-.97 2.97-2.4 5.58-4.3 7.84-1.88 2.25-4.18 4.06-6.9 5.42-2.72 1.35-5.8 2.03-9.27 2.03-2.85 0-5.53-.57-8.07-1.72-2.53-1.13-4.5-2.7-5.93-4.67h-.2v27.35l-15.2-12.05V30.46h14.47v5.66h.28c1.42-1.85 3.38-3.48 5.9-4.87 2.5-1.4 5.44-2.08 8.84-2.08zm-3.72 12.43c-1.73 0-3.28.33-4.63 1a11.06 11.06 0 0 0-3.48 2.7 12.3 12.3 0 0 0-2.23 3.8 12.48 12.48 0 0 0-.78 4.35c0 1.5.26 2.94.78 4.36a12.3 12.3 0 0 0 2.23 3.8 11.06 11.06 0 0 0 3.48 2.7c1.36.68 2.9 1.02 4.63 1.02 1.8 0 3.37-.34 4.73-1.02 1.37-.68 2.5-1.58 3.4-2.7.9-1.1 1.57-2.38 2.03-3.84.47-1.45.7-2.92.7-4.4a13.97 13.97 0 0 0-.7-4.36c-.46-1.42-1.14-2.67-2.04-3.75-.9-1.08-2.03-1.96-3.4-2.64-1.35-.67-2.93-1-4.72-1zm59.98-12.43c3.34 0 6.37.64 9.1 1.94 2.7 1.3 5 3.07 6.9 5.3 1.88 2.22 3.33 4.8 4.35 7.74 1.03 2.93 1.54 6 1.54 9.22 0 3.22-.5 6.3-1.48 9.27-1 2.97-2.43 5.58-4.3 7.84-1.9 2.25-4.2 4.06-6.92 5.42-2.72 1.35-5.8 2.03-9.27 2.03-2.84 0-5.53-.57-8.07-1.72-2.53-1.13-4.5-2.7-5.93-4.67h-.2v27.35l-15.2-12.05V30.46h14.47v5.66h.28c1.42-1.85 3.38-3.48 5.9-4.87 2.5-1.4 5.44-2.08 8.84-2.08zm-3.7 12.42c-1.74 0-3.28.33-4.64 1a11.06 11.06 0 0 0-3.48 2.7 12.3 12.3 0 0 0-2.22 3.8 12.48 12.48 0 0 0-.8 4.35c0 1.5.27 2.94.8 4.36a12.3 12.3 0 0 0 2.22 3.8 11.06 11.06 0 0 0 3.48 2.7c1.36.68 2.9 1.02 4.63 1.02 1.8 0 3.37-.34 4.73-1.02 1.36-.68 2.5-1.57 3.38-2.7.9-1.1 1.58-2.38 2.04-3.83.47-1.46.7-2.93.7-4.4a13.97 13.97 0 0 0-.7-4.36c-.46-1.42-1.14-2.67-2.04-3.75-.9-1.08-2.02-1.96-3.38-2.64-1.36-.67-2.94-1-4.73-1zM424.44 97.58c2.9 0 5.42-.34 7.55-1.02 2.13-.68 3.98-1.68 5.56-3s2.93-2.95 4.07-4.83c1.15-1.9 2.18-4.03 3.1-6.45l20.68-53.12H449.3l-9.17 29.67h-.27l-10.3-29.66h-16.86l19.28 45.42-1.5 3.8c-.73 1.97-1.62 3.5-2.67 4.58-1.06 1.08-2.75 1.62-5.1 1.62-.75 0-1.56-.07-2.46-.23a16.8 16.8 0 0 1-2.46-.6l-1.67 12.8c1.1.3 2.42.55 3.93.73 1.52.2 3 .28 4.4.28zM60.14 14.44c.18-.27.45-.44.75-.47a1 1 0 0 1 .4.04l20.9 6.58c.4.14.7.55.7 1a1.03 1.03 0 0 1-.75 1l-10.6 2.94-3.2 9.85c-.13.42-.52.7-.95.7a1 1 0 0 1-.96-.7l-6.4-20.05a1.06 1.06 0 0 1 .1-.88zM63.92.54A1.7 1.7 0 0 1 66.37.5c.33.35.5.8.5 1.27v5.78A1.74 1.74 0 0 1 66 9.07a1.7 1.7 0 0 1-1.72 0 1.74 1.74 0 0 1-.86-1.52V1.77c0-.46.17-.9.5-1.24zm-12.98 4.7c.22-.64.77-1.1 1.42-1.16a1.68 1.68 0 0 1 1.4.52l4.53 4.6c.47.43.68 1.1.52 1.7a1.7 1.7 0 0 1-1.26 1.27 1.68 1.68 0 0 1-1.67-.54l-4.53-4.6a1.74 1.74 0 0 1-.42-1.8zm-3.92 12a1.7 1.7 0 0 1 1.6-.95h5.66a1.7 1.7 0 0 1 1.5.86 1.78 1.78 0 0 1 0 1.76 1.7 1.7 0 0 1-1.5.86H48.6a1.7 1.7 0 0 1-1.5-.8 1.8 1.8 0 0 1-.1-1.74z"/><path fill="#0D203E" d="M293.96 22.22c1.14 0 2.23-.2 3.28-.62 1.05-.42 1.95-1 2.7-1.7a8.18 8.18 0 0 0 1.8-2.55 7.54 7.54 0 0 0 .66-3.17 7.54 7.54 0 0 0-.67-3.17 8.18 8.18 0 0 0-1.8-2.54c-.74-.7-1.64-1.28-2.7-1.7a8.8 8.8 0 0 0-3.27-.62c-1.2 0-2.3.22-3.32.67a9.73 9.73 0 0 0-2.7 1.75 7.3 7.3 0 0 0-1.8 2.55 7.78 7.78 0 0 0-.62 3.08c0 2.2.8 4.1 2.42 5.67 1.62 1.58 3.63 2.37 6.02 2.37z"/></g></svg>